
<svg id="Camada_1" data-name="Camada 1" xmlns="http://www.w3.org/2000/svg" viewBox="0 0 312.99 141.29"><title>alinemezzaribrand</title><path d="M31,55.7l2.47,30.76H30.65l-2-28H22.34L20,86.46H16.8L24.58,2.31H26.7L31,55.64Zm-2.6-.06-2.65-37-3.12,37Z"/><path d="M48,83.63H54.7v2.83H45.16V2.31H48Z"/><path d="M69.22,86.46H66.4V2.31h2.82Z"/><path d="M80.91,2.31h2.83l6.72,62.17V2.31h2.83V86.46H90.46L83.74,30.54V86.46H80.91Z"/><path d="M114.54,2.31V5.13h-6.72V43.27h6.72v2.82h-6.72V83.63h6.72v2.83H105V2.31Z"/><path d="M156.74,86.46l-3.89-46v46H150V2.31h2.83l5.48,68.3,5.42-68.3h2.83V86.46h-2.83v-46l-3.89,46Z"/><path d="M187.83,2.31V5.13h-6.72V43.27h6.72v2.82h-6.72V83.63h6.72v2.83h-9.55V2.31Z"/><path d="M199.52,83.63l8.72-78.5h-8.72V2.31h11.26V5.13l-8.25,78.5h6.54v2.83h-9.55Z"/><path d="M220.76,83.63l8.72-78.5h-8.72V2.31H232V5.13l-8.25,78.5h6.54v2.83h-9.54Z"/><path d="M256.21,55.7l2.47,30.76h-2.83l-2-28h-6.31l-2.35,28H242l7.78-84.15h2.13l4.3,53.33Zm-2.6-.06-2.65-37-3.12,37Z"/><path d="M273.2,86.46h-2.82V2.31h9.31c1.33,0,2,.84,2,2.53V40.73c0,2.12-.61,3.34-1.83,3.65l.95.42c.59.27.88,1.27.88,3V86.46h-2.83v-38c0-1.57-.57-2.36-1.71-2.36H273.2Zm5.66-46.14V6.25c0-.74-.19-1.12-.59-1.12H273.2V43.27h3.95C278.29,43.27,278.86,42.28,278.86,40.32Z"/><path d="M296.19,86.46h-2.83V2.31h2.83Z"/><path d="M106,138.55c-.54,0-.81-.29-.81-.86V105.93a.67.67,0,0,1,.75-.76h7.32a6.79,6.79,0,0,1,5.33,2.46,8.4,8.4,0,0,1,2.15,5.74,7.78,7.78,0,0,1-4,7.23,9.27,9.27,0,0,1,4.5,3.37,9,9,0,0,1-1,11.89,9.32,9.32,0,0,1-6.68,2.69Zm13.24-25.14a7,7,0,0,0-1.7-4.66,5.35,5.35,0,0,0-4.28-2h-6.56V120h6.51a5.46,5.46,0,0,0,4.31-2A6.9,6.9,0,0,0,119.19,113.41Zm2.26,15.88a7.23,7.23,0,0,0-2.37-5.45,7.85,7.85,0,0,0-5.6-2.25h-6.83V137h6.83a7.88,7.88,0,0,0,5.6-2.24A7.25,7.25,0,0,0,121.45,129.29Z"/><path d="M137.92,120.63q.81,0,.81.69a.73.73,0,0,1-.7.81,6.58,6.58,0,0,0-4.84,2.9,9.3,9.3,0,0,0-1.56,5.52v7.2a.67.67,0,0,1-.76.75.66.66,0,0,1-.75-.75V121.38a.76.76,0,0,1,1.51,0v3.29a9.06,9.06,0,0,1,2.63-2.81A6.51,6.51,0,0,1,137.92,120.63Z"/><path d="M160.37,120.52a.67.67,0,0,1,.76.75v16.42a.67.67,0,0,1-.76.75.66.66,0,0,1-.75-.75v-3.44a8.11,8.11,0,0,1-7.54,4.68,7.9,7.9,0,0,1-6.19-2.8,9.94,9.94,0,0,1,0-13.14,7.94,7.94,0,0,1,6.19-2.8,8.12,8.12,0,0,1,7.54,4.69v-3.61A.66.66,0,0,1,160.37,120.52Zm-8.29,16.85A6.54,6.54,0,0,0,157.2,135a8.31,8.31,0,0,0,0-10.91,6.74,6.74,0,0,0-10.23,0A8.28,8.28,0,0,0,147,135,6.52,6.52,0,0,0,152.08,137.37Z"/><path d="M176.25,120.14a6.2,6.2,0,0,1,5.12,2.48,8.46,8.46,0,0,1,1.83,5.49v9.58a.76.76,0,0,1-1.51,0v-9.55a7.24,7.24,0,0,0-1.45-4.53,4.75,4.75,0,0,0-4-1.91,5.42,5.42,0,0,0-4.84,2.57,11.07,11.07,0,0,0-1.4,5.94v7.49a.76.76,0,0,1-1.51,0V121.27a.76.76,0,0,1,1.51,0v2.64A6.89,6.89,0,0,1,176.25,120.14Z"/><path d="M207.1,105.5a.66.66,0,0,1,.75.75v31.49a.75.75,0,1,1-1.5,0V134.3a8.11,8.11,0,0,1-7.54,4.68,7.93,7.93,0,0,1-6.16-2.8,9.51,9.51,0,0,1-2.51-6.56,9.62,9.62,0,0,1,2.48-6.54,7.87,7.87,0,0,1,6.19-2.83,8.1,8.1,0,0,1,7.54,4.74V106.25A.66.66,0,0,1,207.1,105.5Zm-8.29,31.92a6.47,6.47,0,0,0,5.11-2.35,8.28,8.28,0,0,0,0-10.91,6.73,6.73,0,0,0-10.22,0,8.28,8.28,0,0,0,0,10.91A6.49,6.49,0,0,0,198.81,137.42Z"/></svg>