<svg id="Capa_1" enable-background="new 0 0 32 32" height="32" viewBox="0 0 32 32" width="32" xmlns="http://www.w3.org/2000/svg"><g><g><path d="m233.974 105.487v17.211c0 7.715 6.277 13.992 13.993 13.992h16.3c7.715 0 13.992-6.277 13.992-13.992v-17.211h17.21c7.716 0 13.993-6.277 13.993-13.992v-16.3c0-7.715-6.277-13.992-13.993-13.992h-17.21v-17.211c0-7.715-6.277-13.992-13.992-13.992h-16.3c-7.716 0-13.993 6.277-13.993 13.992v17.211h-17.21c-7.715 0-13.992 6.277-13.992 13.992v16.3c0 7.715 6.277 13.992 13.992 13.992zm-16.202-29.284h17.21c7.715 0 13.992-6.277 13.992-13.993v-17.21h14.285v17.21c0 7.716 6.277 13.993 13.993 13.993h17.21v14.284h-17.21c-7.716 0-13.993 6.277-13.993 13.993v17.21h-14.285v-17.21c0-7.716-6.277-13.993-13.992-13.993h-17.21z"/><path d="m458.272 122.138h-10.72v-18.041c0-11.225-9.132-20.356-20.355-20.356h-87.744c.001-.133.01-.263.01-.396-.001-45.956-37.389-83.345-83.346-83.345-45.956 0-83.345 37.389-83.345 83.345 0 .133.009.263.01.396h-28.846c-4.143 0-7.5 3.357-7.5 7.5s3.357 7.5 7.5 7.5h30.285c1.556 8.295 4.339 16.159 8.162 23.397h-102.702v-18.041c0-2.953 2.403-5.356 5.356-5.356h23.876c4.143 0 7.5-3.357 7.5-7.5s-3.357-7.5-7.5-7.5h-23.875c-11.225 0-20.356 9.132-20.356 20.356v18.041h-10.72c-7.732 0-14.022 6.29-14.022 14.022v98.779c0 13.476 7.182 25.305 17.919 31.864v237.93c0 4.143 3.357 7.5 7.5 7.5h381.517c4.143 0 7.5-3.357 7.5-7.5v-237.93c10.736-6.559 17.918-18.388 17.918-31.863v-98.78c-.001-7.732-6.291-14.022-14.022-14.022zm-120.259-23.398h89.183c2.953 0 5.355 2.403 5.355 5.356v18.041h-102.7c3.824-7.238 6.606-15.102 8.162-23.397zm-81.896-83.74c37.686 0 68.346 30.659 68.346 68.345s-30.66 68.346-68.346 68.346-68.345-30.66-68.345-68.346 30.659-68.345 68.345-68.345zm-201.177 219.939v-32.954h44.622v32.954c0 12.303-10.009 22.312-22.311 22.312s-22.311-10.009-22.311-22.312zm384.435 262.294h-112.4v-55.348c0-4.143-3.357-7.5-7.5-7.5s-7.5 3.357-7.5 7.5v55.348h-111.717v-121.882c0-30.801 25.058-55.858 55.858-55.858s55.858 25.058 55.858 55.858v31.877c0 4.143 3.357 7.5 7.5 7.5s7.5-3.357 7.5-7.5v-31.877c0-39.071-31.787-70.858-70.858-70.858s-70.858 31.787-70.858 70.858v121.883h-112.399v-225.25c1.442.17 2.906.267 4.393.267 12.17 0 22.996-5.859 29.811-14.903 6.815 9.044 17.641 14.903 29.811 14.903s22.996-5.859 29.811-14.903c6.815 9.044 17.641 14.903 29.811 14.903s22.996-5.859 29.811-14.902c6.815 9.043 17.64 14.902 29.811 14.902s22.996-5.859 29.811-14.903c6.815 9.044 17.641 14.903 29.811 14.903s22.996-5.859 29.811-14.903c6.815 9.044 17.641 14.903 29.811 14.903s22.996-5.859 29.811-14.903c6.815 9.044 17.641 14.903 29.811 14.903 1.487 0 2.951-.097 4.393-.267v225.249zm-324.813-262.294v-32.954h44.622v32.954c0 12.303-10.009 22.312-22.311 22.312s-22.311-10.009-22.311-22.312zm59.622 0v-32.954h44.622v32.954c0 12.303-10.009 22.312-22.311 22.312h-.001c-12.301 0-22.31-10.009-22.31-22.312zm59.622 0v-32.954h44.622v32.954c0 12.303-10.009 22.312-22.312 22.312-12.301 0-22.31-10.009-22.31-22.312zm59.622 0v-32.954h44.622v32.954c0 12.303-10.009 22.312-22.312 22.312-12.301 0-22.31-10.009-22.31-22.312zm59.622 0v-32.954h44.622v32.954c0 12.303-10.009 22.312-22.312 22.312-12.301 0-22.31-10.009-22.31-22.312zm104.243 0c0 12.303-10.009 22.312-22.311 22.312s-22.311-10.009-22.311-22.312v-32.954h44.621v32.954zm0-47.954h-402.353v-49.848h137.588c15.3 18.059 38.122 29.553 63.589 29.553s48.289-11.494 63.59-29.553h137.587v49.848z"/><path d="m285.928 392.854h-8.678c-4.143 0-7.5 3.357-7.5 7.5s3.357 7.5 7.5 7.5h1.178v31.991h-1.178c-4.143 0-7.5 3.357-7.5 7.5s3.357 7.5 7.5 7.5h8.678c4.143 0 7.5-3.357 7.5-7.5v-46.991c0-4.143-3.357-7.5-7.5-7.5z"/></g></g></svg>